G04 EAGLE Gerber RS-274X export*
G75*
%MOMM*%
%FSLAX34Y34*%
%LPD*%
%INTop Copper*%
%IPPOS*%
%AMOC8*
5,1,8,0,0,1.08239X$1,22.5*%
G01*
%ADD10C,1.308000*%
%ADD11C,1.605000*%
%ADD12P,3.436588X8X22.500000*%
%ADD13C,1.000000*%
%ADD14C,0.806400*%


D10*
X196660Y165100D02*
X209740Y165100D01*
X209740Y190500D02*
X196660Y190500D01*
X196660Y215900D02*
X209740Y215900D01*
X209740Y241300D02*
X196660Y241300D01*
X196660Y266700D02*
X209740Y266700D01*
X209740Y292100D02*
X196660Y292100D01*
X196660Y317500D02*
X209740Y317500D01*
X209740Y342900D02*
X196660Y342900D01*
X196660Y368300D02*
X209740Y368300D01*
X209740Y393700D02*
X196660Y393700D01*
X196660Y419100D02*
X209740Y419100D01*
X209740Y444500D02*
X196660Y444500D01*
X57340Y165100D02*
X44260Y165100D01*
X44260Y190500D02*
X57340Y190500D01*
X57340Y215900D02*
X44260Y215900D01*
X44260Y368300D02*
X57340Y368300D01*
X57340Y393700D02*
X44260Y393700D01*
X44260Y419100D02*
X57340Y419100D01*
X57340Y444500D02*
X44260Y444500D01*
X44260Y520700D02*
X57340Y520700D01*
X196660Y520700D02*
X209740Y520700D01*
X209740Y495300D02*
X196660Y495300D01*
X196660Y469900D02*
X209740Y469900D01*
X57340Y495300D02*
X44260Y495300D01*
X44260Y469900D02*
X57340Y469900D01*
X57340Y241300D02*
X44260Y241300D01*
X44260Y342900D02*
X57340Y342900D01*
X57340Y317500D02*
X44260Y317500D01*
X44260Y292100D02*
X57340Y292100D01*
X57340Y266700D02*
X44260Y266700D01*
D11*
X390350Y38100D02*
X406400Y38100D01*
X406400Y63500D02*
X390350Y63500D01*
X390350Y88900D02*
X406400Y88900D01*
X406400Y114300D02*
X390350Y114300D01*
X390350Y558800D02*
X406400Y558800D01*
X406400Y584200D02*
X390350Y584200D01*
X390350Y609600D02*
X406400Y609600D01*
X406400Y635000D02*
X390350Y635000D01*
X390350Y431800D02*
X406400Y431800D01*
X406400Y457200D02*
X390350Y457200D01*
X390350Y482600D02*
X406400Y482600D01*
X406400Y508000D02*
X390350Y508000D01*
X390350Y165100D02*
X406400Y165100D01*
X406400Y190500D02*
X390350Y190500D01*
X390350Y215900D02*
X406400Y215900D01*
X406400Y241300D02*
X390350Y241300D01*
D12*
X406400Y355600D03*
X406400Y304800D03*
D13*
X469900Y457200D02*
X469900Y546100D01*
D14*
X469900Y457200D03*
X469900Y546100D03*
D13*
X469900Y330200D02*
X469900Y203200D01*
X469900Y88900D01*
D14*
X469900Y88900D03*
X469900Y203200D03*
X469900Y330200D03*
D13*
X342900Y457200D02*
X317500Y457200D01*
X254000Y393700D01*
X241300Y393700D01*
D14*
X342900Y457200D03*
X241300Y393700D03*
D13*
X317500Y317500D02*
X317500Y266700D01*
X317500Y317500D02*
X279400Y355600D01*
X279400Y381000D01*
D14*
X279400Y381000D03*
X317500Y266700D03*
M02*
