M48
;GenerationSoftware,Autodesk,EAGLE,9.5.1*%
;CreationDate,2019-11-25T23:21:39Z*%
FMAT,2
ICI,OFF
METRIC,TZ,000.000
T6C0.400
T5C0.800
T4C1.070
T3C1.300
T2C1.321
T1C3.200
%
G90
M71
T1
X33020Y38100
T2
X40640Y30480
X40640Y35560
T3
X42800Y6350
X42800Y58420
X42800Y45720
X42800Y19050
T4
X40640Y3810
X40640Y63500
X40640Y60960
X40640Y58420
X40640Y55880
X40640Y8890
X40640Y11430
X40640Y6350
X40640Y43180
X40640Y45720
X40640Y50800
X40640Y16510
X40640Y19050
X40640Y21590
X40640Y24130
X40640Y48260
T5
X20320Y39370
X20320Y41910
X20320Y44450
X5080Y16510
X5080Y19050
X5080Y21590
X5080Y36830
X5080Y39370
X5080Y41910
X5080Y44450
X5080Y52070
X20320Y52070
X20320Y49530
X20320Y46990
X5080Y49530
X5080Y46990
X5080Y24130
X5080Y34290
X5080Y31750
X5080Y29210
X5080Y26670
X20320Y16510
X20320Y19050
X20320Y21590
X20320Y24130
X20320Y26670
X20320Y29210
X20320Y31750
X20320Y34290
X20320Y36830
T6
X31750Y26670
X46990Y45720
X24130Y39370
X34290Y45720
X46990Y33020
X46990Y20320
X46990Y8890
X46990Y54610
X27940Y38100
M30