G04 EAGLE Gerber RS-274X export*
G75*
%MOMM*%
%FSLAX34Y34*%
%LPD*%
%IN*%
%IPPOS*%
%AMOC8*
5,1,8,0,0,1.08239X$1,22.5*%
G01*
%ADD10C,0.254000*%


D10*
X0Y0D02*
X542800Y0D01*
X542800Y673000D01*
X0Y673000D01*
X0Y0D01*
X346200Y380476D02*
X346132Y379431D01*
X345995Y378392D01*
X345790Y377365D01*
X345519Y376353D01*
X345183Y375361D01*
X344782Y374393D01*
X344318Y373454D01*
X343795Y372546D01*
X343213Y371675D01*
X342575Y370844D01*
X341884Y370057D01*
X341143Y369316D01*
X340356Y368625D01*
X339525Y367988D01*
X338654Y367406D01*
X337746Y366882D01*
X336807Y366418D01*
X335839Y366017D01*
X334847Y365681D01*
X333835Y365410D01*
X332808Y365205D01*
X331769Y365069D01*
X330724Y365000D01*
X329676Y365000D01*
X328631Y365069D01*
X327592Y365205D01*
X326565Y365410D01*
X325553Y365681D01*
X324561Y366017D01*
X323593Y366418D01*
X322654Y366882D01*
X321746Y367406D01*
X320875Y367988D01*
X320044Y368625D01*
X319257Y369316D01*
X318516Y370057D01*
X317825Y370844D01*
X317188Y371675D01*
X316606Y372546D01*
X316082Y373454D01*
X315618Y374393D01*
X315217Y375361D01*
X314881Y376353D01*
X314610Y377365D01*
X314405Y378392D01*
X314269Y379431D01*
X314200Y380476D01*
X314200Y381524D01*
X314269Y382569D01*
X314405Y383608D01*
X314610Y384635D01*
X314881Y385647D01*
X315217Y386639D01*
X315618Y387607D01*
X316082Y388546D01*
X316606Y389454D01*
X317188Y390325D01*
X317825Y391156D01*
X318516Y391943D01*
X319257Y392684D01*
X320044Y393375D01*
X320875Y394013D01*
X321746Y394595D01*
X322654Y395118D01*
X323593Y395582D01*
X324561Y395983D01*
X325553Y396319D01*
X326565Y396590D01*
X327592Y396795D01*
X328631Y396932D01*
X329676Y397000D01*
X330724Y397000D01*
X331769Y396932D01*
X332808Y396795D01*
X333835Y396590D01*
X334847Y396319D01*
X335839Y395983D01*
X336807Y395582D01*
X337746Y395118D01*
X338654Y394595D01*
X339525Y394013D01*
X340356Y393375D01*
X341143Y392684D01*
X341884Y391943D01*
X342575Y391156D01*
X343213Y390325D01*
X343795Y389454D01*
X344318Y388546D01*
X344782Y387607D01*
X345183Y386639D01*
X345519Y385647D01*
X345790Y384635D01*
X345995Y383608D01*
X346132Y382569D01*
X346200Y381524D01*
X346200Y380476D01*
X428319Y70000D02*
X428955Y69937D01*
X429581Y69813D01*
X430192Y69627D01*
X430782Y69383D01*
X431346Y69082D01*
X431877Y68727D01*
X432370Y68322D01*
X432822Y67870D01*
X433227Y67377D01*
X433582Y66846D01*
X433883Y66282D01*
X434127Y65692D01*
X434313Y65081D01*
X434437Y64455D01*
X434500Y63819D01*
X434500Y63181D01*
X434437Y62545D01*
X434313Y61919D01*
X434127Y61308D01*
X433883Y60718D01*
X433582Y60154D01*
X433227Y59623D01*
X432822Y59130D01*
X432370Y58678D01*
X431877Y58273D01*
X431346Y57918D01*
X430782Y57617D01*
X430192Y57373D01*
X429581Y57187D01*
X428955Y57063D01*
X428319Y57000D01*
X427681Y57000D01*
X427045Y57063D01*
X426419Y57187D01*
X425808Y57373D01*
X425218Y57617D01*
X424654Y57918D01*
X424123Y58273D01*
X423630Y58678D01*
X423178Y59130D01*
X422773Y59623D01*
X422418Y60154D01*
X422117Y60718D01*
X421873Y61308D01*
X421687Y61919D01*
X421563Y62545D01*
X421500Y63181D01*
X421500Y63819D01*
X421563Y64455D01*
X421687Y65081D01*
X421873Y65692D01*
X422117Y66282D01*
X422418Y66846D01*
X422773Y67377D01*
X423178Y67870D01*
X423630Y68322D01*
X424123Y68727D01*
X424654Y69082D01*
X425218Y69383D01*
X425808Y69627D01*
X426419Y69813D01*
X427045Y69937D01*
X427681Y70000D01*
X428319Y70000D01*
X428319Y590700D02*
X428955Y590637D01*
X429581Y590513D01*
X430192Y590327D01*
X430782Y590083D01*
X431346Y589782D01*
X431877Y589427D01*
X432370Y589022D01*
X432822Y588570D01*
X433227Y588077D01*
X433582Y587546D01*
X433883Y586982D01*
X434127Y586392D01*
X434313Y585781D01*
X434437Y585155D01*
X434500Y584519D01*
X434500Y583881D01*
X434437Y583245D01*
X434313Y582619D01*
X434127Y582008D01*
X433883Y581418D01*
X433582Y580854D01*
X433227Y580323D01*
X432822Y579830D01*
X432370Y579378D01*
X431877Y578973D01*
X431346Y578618D01*
X430782Y578317D01*
X430192Y578073D01*
X429581Y577887D01*
X428955Y577763D01*
X428319Y577700D01*
X427681Y577700D01*
X427045Y577763D01*
X426419Y577887D01*
X425808Y578073D01*
X425218Y578317D01*
X424654Y578618D01*
X424123Y578973D01*
X423630Y579378D01*
X423178Y579830D01*
X422773Y580323D01*
X422418Y580854D01*
X422117Y581418D01*
X421873Y582008D01*
X421687Y582619D01*
X421563Y583245D01*
X421500Y583881D01*
X421500Y584519D01*
X421563Y585155D01*
X421687Y585781D01*
X421873Y586392D01*
X422117Y586982D01*
X422418Y587546D01*
X422773Y588077D01*
X423178Y588570D01*
X423630Y589022D01*
X424123Y589427D01*
X424654Y589782D01*
X425218Y590083D01*
X425808Y590327D01*
X426419Y590513D01*
X427045Y590637D01*
X427681Y590700D01*
X428319Y590700D01*
X428319Y463700D02*
X428955Y463637D01*
X429581Y463513D01*
X430192Y463327D01*
X430782Y463083D01*
X431346Y462782D01*
X431877Y462427D01*
X432370Y462022D01*
X432822Y461570D01*
X433227Y461077D01*
X433582Y460546D01*
X433883Y459982D01*
X434127Y459392D01*
X434313Y458781D01*
X434437Y458155D01*
X434500Y457519D01*
X434500Y456881D01*
X434437Y456245D01*
X434313Y455619D01*
X434127Y455008D01*
X433883Y454418D01*
X433582Y453854D01*
X433227Y453323D01*
X432822Y452830D01*
X432370Y452378D01*
X431877Y451973D01*
X431346Y451618D01*
X430782Y451317D01*
X430192Y451073D01*
X429581Y450887D01*
X428955Y450763D01*
X428319Y450700D01*
X427681Y450700D01*
X427045Y450763D01*
X426419Y450887D01*
X425808Y451073D01*
X425218Y451317D01*
X424654Y451618D01*
X424123Y451973D01*
X423630Y452378D01*
X423178Y452830D01*
X422773Y453323D01*
X422418Y453854D01*
X422117Y454418D01*
X421873Y455008D01*
X421687Y455619D01*
X421563Y456245D01*
X421500Y456881D01*
X421500Y457519D01*
X421563Y458155D01*
X421687Y458781D01*
X421873Y459392D01*
X422117Y459982D01*
X422418Y460546D01*
X422773Y461077D01*
X423178Y461570D01*
X423630Y462022D01*
X424123Y462427D01*
X424654Y462782D01*
X425218Y463083D01*
X425808Y463327D01*
X426419Y463513D01*
X427045Y463637D01*
X427681Y463700D01*
X428319Y463700D01*
X428319Y197000D02*
X428955Y196937D01*
X429581Y196813D01*
X430192Y196627D01*
X430782Y196383D01*
X431346Y196082D01*
X431877Y195727D01*
X432370Y195322D01*
X432822Y194870D01*
X433227Y194377D01*
X433582Y193846D01*
X433883Y193282D01*
X434127Y192692D01*
X434313Y192081D01*
X434437Y191455D01*
X434500Y190819D01*
X434500Y190181D01*
X434437Y189545D01*
X434313Y188919D01*
X434127Y188308D01*
X433883Y187718D01*
X433582Y187154D01*
X433227Y186623D01*
X432822Y186130D01*
X432370Y185678D01*
X431877Y185273D01*
X431346Y184918D01*
X430782Y184617D01*
X430192Y184373D01*
X429581Y184187D01*
X428955Y184063D01*
X428319Y184000D01*
X427681Y184000D01*
X427045Y184063D01*
X426419Y184187D01*
X425808Y184373D01*
X425218Y184617D01*
X424654Y184918D01*
X424123Y185273D01*
X423630Y185678D01*
X423178Y186130D01*
X422773Y186623D01*
X422418Y187154D01*
X422117Y187718D01*
X421873Y188308D01*
X421687Y188919D01*
X421563Y189545D01*
X421500Y190181D01*
X421500Y190819D01*
X421563Y191455D01*
X421687Y192081D01*
X421873Y192692D01*
X422117Y193282D01*
X422418Y193846D01*
X422773Y194377D01*
X423178Y194870D01*
X423630Y195322D01*
X424123Y195727D01*
X424654Y196082D01*
X425218Y196383D01*
X425808Y196627D01*
X426419Y196813D01*
X427045Y196937D01*
X427681Y197000D01*
X428319Y197000D01*
M02*
