G04 EAGLE Gerber RS-274X export*
G75*
%MOMM*%
%FSLAX34Y34*%
%LPD*%
%INSilkscreen Top*%
%IPPOS*%
%AMOC8*
5,1,8,0,0,1.08239X$1,22.5*%
G01*
%ADD10C,0.127000*%
%ADD11C,0.101600*%
%ADD12C,0.152400*%


D10*
X373400Y25200D02*
X373400Y127200D01*
X373400Y25200D02*
X431800Y25200D01*
X431800Y127000D02*
X373400Y127000D01*
X431800Y127200D02*
X431800Y25200D01*
D11*
X367792Y51308D02*
X356108Y51308D01*
X356108Y56501D01*
X361301Y56501D02*
X361301Y51308D01*
X367792Y60161D02*
X356108Y64056D01*
X367792Y67951D01*
X364871Y66977D02*
X364871Y61135D01*
X367792Y72621D02*
X356108Y72621D01*
X367792Y79113D01*
X356108Y79113D01*
X356108Y87029D02*
X365196Y84432D01*
X365196Y90923D01*
X362599Y88976D02*
X367792Y88976D01*
D10*
X373400Y545900D02*
X373400Y647900D01*
X373400Y545900D02*
X431800Y545900D01*
X431800Y647700D02*
X373400Y647700D01*
X431800Y647900D02*
X431800Y545900D01*
D11*
X367792Y572008D02*
X356108Y572008D01*
X356108Y577201D01*
X361301Y577201D02*
X361301Y572008D01*
X367792Y580861D02*
X356108Y584756D01*
X367792Y588651D01*
X364871Y587677D02*
X364871Y581835D01*
X367792Y593321D02*
X356108Y593321D01*
X367792Y599813D01*
X356108Y599813D01*
X358704Y605132D02*
X356108Y608378D01*
X367792Y608378D01*
X367792Y611623D02*
X367792Y605132D01*
D10*
X373400Y520900D02*
X373400Y418900D01*
X431800Y418900D01*
X431800Y520700D02*
X373400Y520700D01*
X431800Y520900D02*
X431800Y418900D01*
D11*
X367792Y445008D02*
X356108Y445008D01*
X356108Y450201D01*
X361301Y450201D02*
X361301Y445008D01*
X367792Y453861D02*
X356108Y457756D01*
X367792Y461651D01*
X364871Y460677D02*
X364871Y454835D01*
X367792Y466321D02*
X356108Y466321D01*
X367792Y472813D01*
X356108Y472813D01*
X356108Y481702D02*
X356110Y481809D01*
X356116Y481915D01*
X356126Y482021D01*
X356139Y482127D01*
X356157Y482233D01*
X356178Y482337D01*
X356203Y482441D01*
X356232Y482544D01*
X356264Y482645D01*
X356301Y482745D01*
X356341Y482844D01*
X356384Y482942D01*
X356431Y483038D01*
X356482Y483132D01*
X356536Y483224D01*
X356593Y483314D01*
X356653Y483402D01*
X356717Y483487D01*
X356784Y483570D01*
X356854Y483651D01*
X356926Y483729D01*
X357002Y483805D01*
X357080Y483877D01*
X357161Y483947D01*
X357244Y484014D01*
X357329Y484078D01*
X357417Y484138D01*
X357507Y484195D01*
X357599Y484249D01*
X357693Y484300D01*
X357789Y484347D01*
X357887Y484390D01*
X357986Y484430D01*
X358086Y484467D01*
X358187Y484499D01*
X358290Y484528D01*
X358394Y484553D01*
X358498Y484574D01*
X358604Y484592D01*
X358710Y484605D01*
X358816Y484615D01*
X358922Y484621D01*
X359029Y484623D01*
X356108Y481702D02*
X356110Y481581D01*
X356116Y481460D01*
X356126Y481340D01*
X356139Y481219D01*
X356157Y481100D01*
X356178Y480980D01*
X356203Y480862D01*
X356232Y480745D01*
X356265Y480628D01*
X356301Y480513D01*
X356342Y480399D01*
X356385Y480286D01*
X356433Y480174D01*
X356484Y480065D01*
X356539Y479957D01*
X356597Y479850D01*
X356658Y479746D01*
X356723Y479644D01*
X356791Y479544D01*
X356862Y479446D01*
X356936Y479350D01*
X357013Y479257D01*
X357094Y479167D01*
X357177Y479079D01*
X357263Y478994D01*
X357352Y478911D01*
X357443Y478832D01*
X357537Y478755D01*
X357633Y478682D01*
X357731Y478612D01*
X357832Y478545D01*
X357935Y478481D01*
X358040Y478421D01*
X358147Y478363D01*
X358255Y478310D01*
X358365Y478260D01*
X358477Y478214D01*
X358590Y478171D01*
X358705Y478132D01*
X361301Y483649D02*
X361223Y483728D01*
X361143Y483804D01*
X361060Y483877D01*
X360974Y483947D01*
X360887Y484014D01*
X360796Y484078D01*
X360704Y484138D01*
X360610Y484196D01*
X360513Y484250D01*
X360415Y484300D01*
X360315Y484347D01*
X360214Y484391D01*
X360111Y484431D01*
X360006Y484467D01*
X359901Y484499D01*
X359794Y484528D01*
X359687Y484553D01*
X359578Y484575D01*
X359469Y484592D01*
X359360Y484606D01*
X359250Y484615D01*
X359139Y484621D01*
X359029Y484623D01*
X361301Y483650D02*
X367792Y478132D01*
X367792Y484623D01*
D10*
X373400Y254200D02*
X373400Y152200D01*
X431800Y152200D01*
X431800Y254000D02*
X373400Y254000D01*
X431800Y254200D02*
X431800Y152200D01*
D11*
X367792Y178308D02*
X356108Y178308D01*
X356108Y183501D01*
X361301Y183501D02*
X361301Y178308D01*
X367792Y187161D02*
X356108Y191056D01*
X367792Y194951D01*
X364871Y193977D02*
X364871Y188135D01*
X367792Y199621D02*
X356108Y199621D01*
X367792Y206113D01*
X356108Y206113D01*
X367792Y211432D02*
X367792Y214678D01*
X367790Y214791D01*
X367784Y214904D01*
X367774Y215017D01*
X367760Y215130D01*
X367743Y215242D01*
X367721Y215353D01*
X367696Y215463D01*
X367666Y215573D01*
X367633Y215681D01*
X367596Y215788D01*
X367556Y215894D01*
X367511Y215998D01*
X367463Y216101D01*
X367412Y216202D01*
X367357Y216301D01*
X367299Y216398D01*
X367237Y216493D01*
X367172Y216586D01*
X367104Y216676D01*
X367033Y216764D01*
X366958Y216850D01*
X366881Y216933D01*
X366801Y217013D01*
X366718Y217090D01*
X366632Y217165D01*
X366544Y217236D01*
X366454Y217304D01*
X366361Y217369D01*
X366266Y217431D01*
X366169Y217489D01*
X366070Y217544D01*
X365969Y217595D01*
X365866Y217643D01*
X365762Y217688D01*
X365656Y217728D01*
X365549Y217765D01*
X365441Y217798D01*
X365331Y217828D01*
X365221Y217853D01*
X365110Y217875D01*
X364998Y217892D01*
X364885Y217906D01*
X364772Y217916D01*
X364659Y217922D01*
X364546Y217924D01*
X364433Y217922D01*
X364320Y217916D01*
X364207Y217906D01*
X364094Y217892D01*
X363982Y217875D01*
X363871Y217853D01*
X363761Y217828D01*
X363651Y217798D01*
X363543Y217765D01*
X363436Y217728D01*
X363330Y217688D01*
X363226Y217643D01*
X363123Y217595D01*
X363022Y217544D01*
X362923Y217489D01*
X362826Y217431D01*
X362731Y217369D01*
X362638Y217304D01*
X362548Y217236D01*
X362460Y217165D01*
X362374Y217090D01*
X362291Y217013D01*
X362211Y216933D01*
X362134Y216850D01*
X362059Y216764D01*
X361988Y216676D01*
X361920Y216586D01*
X361855Y216493D01*
X361793Y216398D01*
X361735Y216301D01*
X361680Y216202D01*
X361629Y216101D01*
X361581Y215998D01*
X361536Y215894D01*
X361496Y215788D01*
X361459Y215681D01*
X361426Y215573D01*
X361396Y215463D01*
X361371Y215353D01*
X361349Y215242D01*
X361332Y215130D01*
X361318Y215017D01*
X361308Y214904D01*
X361302Y214791D01*
X361300Y214678D01*
X356108Y215327D02*
X356108Y211432D01*
X356108Y215327D02*
X356110Y215428D01*
X356116Y215528D01*
X356126Y215628D01*
X356139Y215728D01*
X356157Y215827D01*
X356178Y215926D01*
X356203Y216023D01*
X356232Y216120D01*
X356265Y216215D01*
X356301Y216309D01*
X356341Y216401D01*
X356384Y216492D01*
X356431Y216581D01*
X356481Y216668D01*
X356535Y216754D01*
X356592Y216837D01*
X356652Y216917D01*
X356715Y216996D01*
X356782Y217072D01*
X356851Y217145D01*
X356923Y217215D01*
X356997Y217283D01*
X357074Y217348D01*
X357154Y217409D01*
X357236Y217468D01*
X357320Y217523D01*
X357406Y217575D01*
X357494Y217624D01*
X357584Y217669D01*
X357676Y217711D01*
X357769Y217749D01*
X357864Y217783D01*
X357959Y217814D01*
X358056Y217841D01*
X358154Y217864D01*
X358253Y217884D01*
X358353Y217899D01*
X358453Y217911D01*
X358553Y217919D01*
X358654Y217923D01*
X358754Y217923D01*
X358855Y217919D01*
X358955Y217911D01*
X359055Y217899D01*
X359155Y217884D01*
X359254Y217864D01*
X359352Y217841D01*
X359449Y217814D01*
X359544Y217783D01*
X359639Y217749D01*
X359732Y217711D01*
X359824Y217669D01*
X359914Y217624D01*
X360002Y217575D01*
X360088Y217523D01*
X360172Y217468D01*
X360254Y217409D01*
X360334Y217348D01*
X360411Y217283D01*
X360485Y217215D01*
X360557Y217145D01*
X360626Y217072D01*
X360693Y216996D01*
X360756Y216917D01*
X360816Y216837D01*
X360873Y216754D01*
X360927Y216668D01*
X360977Y216581D01*
X361024Y216492D01*
X361067Y216401D01*
X361107Y216309D01*
X361143Y216215D01*
X361176Y216120D01*
X361205Y216023D01*
X361230Y215926D01*
X361251Y215827D01*
X361269Y215728D01*
X361282Y215628D01*
X361292Y215528D01*
X361298Y215428D01*
X361300Y215327D01*
X361301Y215327D02*
X361301Y212731D01*
D12*
X421640Y340360D02*
X421640Y345440D01*
X421640Y340360D02*
X416560Y340360D01*
X396240Y340360D02*
X391160Y340360D01*
X391160Y345440D01*
X391160Y365760D02*
X391160Y370840D01*
X396240Y370840D01*
X416560Y370840D02*
X421640Y370840D01*
X421640Y365760D01*
D10*
X399415Y379730D02*
X391795Y379730D01*
X395605Y375920D02*
X395605Y383540D01*
X404622Y384175D02*
X407797Y386715D01*
X407797Y375285D01*
X404622Y375285D02*
X410972Y375285D01*
X422403Y383858D02*
X422401Y383962D01*
X422395Y384067D01*
X422386Y384171D01*
X422373Y384274D01*
X422355Y384377D01*
X422335Y384479D01*
X422310Y384581D01*
X422282Y384681D01*
X422250Y384781D01*
X422214Y384879D01*
X422175Y384976D01*
X422133Y385071D01*
X422087Y385165D01*
X422037Y385257D01*
X421985Y385347D01*
X421929Y385435D01*
X421869Y385521D01*
X421807Y385605D01*
X421742Y385686D01*
X421674Y385765D01*
X421602Y385842D01*
X421529Y385915D01*
X421452Y385987D01*
X421373Y386055D01*
X421292Y386120D01*
X421208Y386182D01*
X421122Y386242D01*
X421034Y386298D01*
X420944Y386350D01*
X420852Y386400D01*
X420758Y386446D01*
X420663Y386488D01*
X420566Y386527D01*
X420468Y386563D01*
X420368Y386595D01*
X420268Y386623D01*
X420166Y386648D01*
X420064Y386668D01*
X419961Y386686D01*
X419858Y386699D01*
X419754Y386708D01*
X419649Y386714D01*
X419545Y386716D01*
X419545Y386715D02*
X419427Y386713D01*
X419308Y386707D01*
X419190Y386698D01*
X419073Y386685D01*
X418956Y386667D01*
X418839Y386647D01*
X418723Y386622D01*
X418608Y386594D01*
X418495Y386561D01*
X418382Y386526D01*
X418270Y386486D01*
X418160Y386444D01*
X418051Y386397D01*
X417943Y386347D01*
X417838Y386294D01*
X417734Y386237D01*
X417632Y386177D01*
X417532Y386114D01*
X417434Y386047D01*
X417338Y385978D01*
X417245Y385905D01*
X417154Y385829D01*
X417065Y385751D01*
X416979Y385669D01*
X416896Y385585D01*
X416815Y385499D01*
X416738Y385409D01*
X416663Y385318D01*
X416591Y385224D01*
X416522Y385127D01*
X416457Y385029D01*
X416394Y384928D01*
X416335Y384825D01*
X416279Y384721D01*
X416227Y384615D01*
X416178Y384507D01*
X416133Y384398D01*
X416091Y384287D01*
X416053Y384175D01*
X421450Y381636D02*
X421526Y381711D01*
X421601Y381790D01*
X421672Y381871D01*
X421741Y381955D01*
X421806Y382041D01*
X421868Y382129D01*
X421928Y382219D01*
X421984Y382311D01*
X422037Y382406D01*
X422086Y382502D01*
X422132Y382600D01*
X422175Y382699D01*
X422214Y382800D01*
X422249Y382902D01*
X422281Y383005D01*
X422309Y383109D01*
X422334Y383214D01*
X422355Y383321D01*
X422372Y383427D01*
X422385Y383534D01*
X422394Y383642D01*
X422400Y383750D01*
X422402Y383858D01*
X421450Y381635D02*
X416052Y375285D01*
X422402Y375285D01*
X430657Y375285D02*
X426847Y386715D01*
X434467Y386715D02*
X430657Y375285D01*
D12*
X421640Y294640D02*
X421640Y289560D01*
X416560Y289560D01*
X396240Y289560D02*
X391160Y289560D01*
X391160Y294640D01*
X391160Y314960D02*
X391160Y320040D01*
X396240Y320040D01*
X416560Y320040D02*
X421640Y320040D01*
X421640Y314960D01*
D10*
X398145Y330835D02*
X396240Y330835D01*
X398145Y330835D02*
X398145Y324485D01*
X394335Y324485D01*
X394235Y324487D01*
X394136Y324493D01*
X394036Y324503D01*
X393938Y324516D01*
X393839Y324534D01*
X393742Y324555D01*
X393646Y324580D01*
X393550Y324609D01*
X393456Y324642D01*
X393363Y324678D01*
X393272Y324718D01*
X393182Y324762D01*
X393094Y324809D01*
X393008Y324859D01*
X392924Y324913D01*
X392842Y324970D01*
X392763Y325030D01*
X392685Y325094D01*
X392611Y325160D01*
X392539Y325229D01*
X392470Y325301D01*
X392404Y325375D01*
X392340Y325453D01*
X392280Y325532D01*
X392223Y325614D01*
X392169Y325698D01*
X392119Y325784D01*
X392072Y325872D01*
X392028Y325962D01*
X391988Y326053D01*
X391952Y326146D01*
X391919Y326240D01*
X391890Y326336D01*
X391865Y326432D01*
X391844Y326529D01*
X391826Y326628D01*
X391813Y326726D01*
X391803Y326826D01*
X391797Y326925D01*
X391795Y327025D01*
X391795Y333375D01*
X391797Y333475D01*
X391803Y333574D01*
X391813Y333674D01*
X391826Y333772D01*
X391844Y333871D01*
X391865Y333968D01*
X391890Y334064D01*
X391919Y334160D01*
X391952Y334254D01*
X391988Y334347D01*
X392028Y334438D01*
X392072Y334528D01*
X392119Y334616D01*
X392169Y334702D01*
X392223Y334786D01*
X392280Y334868D01*
X392340Y334947D01*
X392404Y335025D01*
X392470Y335099D01*
X392539Y335171D01*
X392611Y335240D01*
X392685Y335306D01*
X392763Y335370D01*
X392842Y335430D01*
X392924Y335487D01*
X393008Y335541D01*
X393094Y335591D01*
X393182Y335638D01*
X393272Y335682D01*
X393363Y335722D01*
X393456Y335758D01*
X393550Y335791D01*
X393646Y335820D01*
X393742Y335845D01*
X393839Y335866D01*
X393938Y335884D01*
X394036Y335897D01*
X394136Y335907D01*
X394235Y335913D01*
X394335Y335915D01*
X398145Y335915D01*
X403987Y335915D02*
X403987Y324485D01*
X410337Y324485D02*
X403987Y335915D01*
X410337Y335915D02*
X410337Y324485D01*
X416179Y324485D02*
X416179Y335915D01*
X419354Y335915D01*
X419465Y335913D01*
X419575Y335907D01*
X419686Y335898D01*
X419796Y335884D01*
X419905Y335867D01*
X420014Y335846D01*
X420122Y335821D01*
X420229Y335792D01*
X420335Y335760D01*
X420440Y335724D01*
X420543Y335684D01*
X420645Y335641D01*
X420746Y335594D01*
X420845Y335543D01*
X420942Y335490D01*
X421036Y335433D01*
X421129Y335372D01*
X421220Y335309D01*
X421309Y335242D01*
X421395Y335172D01*
X421478Y335099D01*
X421560Y335024D01*
X421638Y334946D01*
X421713Y334864D01*
X421786Y334781D01*
X421856Y334695D01*
X421923Y334606D01*
X421986Y334515D01*
X422047Y334422D01*
X422104Y334328D01*
X422157Y334231D01*
X422208Y334132D01*
X422255Y334031D01*
X422298Y333929D01*
X422338Y333826D01*
X422374Y333721D01*
X422406Y333615D01*
X422435Y333508D01*
X422460Y333400D01*
X422481Y333291D01*
X422498Y333182D01*
X422512Y333072D01*
X422521Y332961D01*
X422527Y332851D01*
X422529Y332740D01*
X422529Y327660D01*
X422527Y327549D01*
X422521Y327439D01*
X422512Y327328D01*
X422498Y327218D01*
X422481Y327109D01*
X422460Y327000D01*
X422435Y326892D01*
X422406Y326785D01*
X422374Y326679D01*
X422338Y326574D01*
X422298Y326471D01*
X422255Y326369D01*
X422208Y326268D01*
X422157Y326169D01*
X422104Y326072D01*
X422047Y325978D01*
X421986Y325885D01*
X421923Y325794D01*
X421856Y325705D01*
X421786Y325619D01*
X421713Y325536D01*
X421638Y325454D01*
X421560Y325376D01*
X421478Y325301D01*
X421395Y325228D01*
X421309Y325158D01*
X421220Y325091D01*
X421129Y325028D01*
X421036Y324967D01*
X420942Y324910D01*
X420845Y324857D01*
X420746Y324806D01*
X420645Y324759D01*
X420543Y324716D01*
X420440Y324676D01*
X420335Y324640D01*
X420229Y324608D01*
X420122Y324579D01*
X420014Y324554D01*
X419905Y324533D01*
X419796Y324516D01*
X419686Y324502D01*
X419575Y324493D01*
X419465Y324487D01*
X419354Y324485D01*
X416179Y324485D01*
M02*
